HIERARCHY
ROOT Hips
{
  OFFSET -35.4901 99.2528 17.4586
  CHANNELS 6 Xposition Yposition Zposition Zrotation Xrotation Yrotation
  JOINT LeftUpLeg
  {
    OFFSET 8.64259 1.95398 -2.38835
    CHANNELS 3 Zrotation Xrotation Yrotation
    JOINT LeftLeg
    {
      OFFSET 43.7702 0 0
      CHANNELS 3 Zrotation Xrotation Yrotation
      JOINT LeftFoot
      {
        OFFSET 40.6238 0 0
        CHANNELS 3 Zrotation Xrotation Yrotation
        JOINT LeftToeBase
        {
          OFFSET 12.7242 0 0
          CHANNELS 3 Zrotation Xrotation Yrotation
          End Site
          {
            OFFSET 0 0 0
          }
        }
      }
    }
  }
  JOINT RightUpLeg
  {
    OFFSET -8.2249 1.95398 -2.59336
    CHANNELS 3 Zrotation Xrotation Yrotation
    JOINT RightLeg
    {
      OFFSET 43.5653 0 0
      CHANNELS 3 Zrotation Xrotation Yrotation
      JOINT RightFoot
      {
        OFFSET 40.6238 0 0
        CHANNELS 3 Zrotation Xrotation Yrotation
        JOINT RightToeBase
        {
          OFFSET 12.7242 0 0
          CHANNELS 3 Zrotation Xrotation Yrotation
          End Site
          {
            OFFSET 0 0 0
          }
        }
      }
    }
  }
  JOINT Spine
  {
    OFFSET 0.165834 0.87714 6.61349
    CHANNELS 3 Zrotation Xrotation Yrotation
    JOINT Spine1
    {
      OFFSET 7.38963 1.71661e-005 0
      CHANNELS 3 Zrotation Xrotation Yrotation
      JOINT Spine2
      {
        OFFSET 11.9445 1.14441e-005 0
        CHANNELS 3 Zrotation Xrotation Yrotation
        JOINT Spine3
        {
          OFFSET 14.7254 4.19617e-005 0
          CHANNELS 3 Zrotation Xrotation Yrotation
          JOINT Spine4
          {
            OFFSET 10.9679 0 0
            CHANNELS 3 Zrotation Xrotation Yrotation
            JOINT RightShoulder
            {
              OFFSET 2.46616 -1.6653 3.69651
              CHANNELS 3 Zrotation Xrotation Yrotation
              JOINT RightArm
              {
                OFFSET 13.0012 0 0
                CHANNELS 3 Zrotation Xrotation Yrotation
                JOINT RightForeArm
                {
                  OFFSET 28.7848 1.52588e-005 0
                  CHANNELS 3 Zrotation Xrotation Yrotation
                  JOINT RightHand
                  {
                    OFFSET 26.5688 1.52588e-005 0
                    CHANNELS 3 Zrotation Xrotation Yrotation
                    End Site
                    {
                      OFFSET 0 0 0
                    }
                  }
                }
              }
            }
            JOINT LeftShoulder
            {
              OFFSET 2.38034 -1.29275 -3.7523
              CHANNELS 3 Zrotation Xrotation Yrotation
              JOINT LeftArm
              {
                OFFSET 16.3182 6.10351e-005 0
                CHANNELS 3 Zrotation Xrotation Yrotation
                JOINT LeftForeArm
                {
                  OFFSET 27.0901 0 0
                  CHANNELS 3 Zrotation Xrotation Yrotation
                  JOINT LeftHand
                  {
                    OFFSET 24.5451 1.52588e-005 0
                    CHANNELS 3 Zrotation Xrotation Yrotation
                    End Site
                    {
                      OFFSET 0 0 0
                    }
                  }
                }
              }
            }
            JOINT Neck
            {
              OFFSET 5.0226 -0.0266342 0
              CHANNELS 3 Zrotation Xrotation Yrotation
              JOINT Head
              {
                OFFSET 6.69364 2.86102e-005 0
                CHANNELS 3 Zrotation Xrotation Yrotation
                End Site
                {
                  OFFSET 0 0 0
                }
              }
            }
          }
        }
      }
    }
  }
}
MOTION
Frames:	9
Frame Time:	0.0416667
-282.85 80.2999 -276.929 -104.394 30.3479 -81.2792 -170.768 16.4015 99.3985 -65.0642 -68.2685 15.8805 165.79 -5.7788 -64.8281 5.04424 -17.9454 21.4201 -177.781 29.6534 84.8319 -76.4366 -16.1997 -6.94362 89.1034 -11.8511 -2.50116 20.7593 0.20693 0.543121 -0.570448 8.05205 -90.1846 10.7688 -1.22102 -0.254171 -0.901598 -1.23104 -0.20018 -23.4404 -1.08819 -0.609429 -3.42775 -1.0882 -0.609432 93.6088 -25.2394 -100.96 48.7284 -6.65578 28.8599 -37.9086 -17.6319 -71.056 -29.4937 1.3843 -15.7397 -82.7425 -43.3968 89.0067 -9.26977 21.7425 -24.9744 46.8928 -19.6863 -94.7973 -5.45156 0.313543 -19.3189 12.9278 2.89378 -2.42698 -8.69396 3.37539 1.00954 
-279.047 83.0046 -274.132 -105.387 29.9415 -79.934 -169.836 6.06195 102.227 -72.4403 -29.1928 5.35867 148.525 8.06258 -44.8007 -17.4115 1.52975 1.69323 -177.7 28.9601 86.5982 -69.1352 -16.2484 -7.60598 79.7747 -8.04891 -3.38386 21.7414 -0.179944 1.29567 -1.41833 7.94678 -90.1965 10.9817 -2.91464 -0.113875 -0.685952 -2.9168 0.0146216 -23.2454 -2.74556 -0.985244 -3.2328 -2.74555 -0.985257 95.0173 -23.4418 -98.3853 54.7419 -11.5195 38.8895 -37.232 -10.0579 -72.6031 -24.6082 1.75956 -19.3129 -83.2881 -39.1324 87.5868 -7.16316 16.8441 -26.8385 39.1203 -19.7819 -99.022 -1.45952 -0.193566 -17.4628 8.44077 6.43826 -3.01739 -7.19719 6.78686 3.56049 
-276.97 87.5344 -270.613 -108.793 31.8058 -76.4229 -168.26 -5.78873 100.672 -66.119 4.78483 4.60632 124.152 22.478 -14.7837 -23.5657 10.4322 -4.01883 -178.882 22.7785 88.2538 -56.0963 -20.4277 -9.32737 68.5758 -3.27411 -2.34846 21.5795 -0.473644 1.9781 -1.93933 8.17955 -90.4281 10.5135 -4.05946 -0.492246 -1.15114 -4.07719 -0.312819 -23.73 -3.72364 -1.69112 -3.71735 -3.72364 -1.69112 96.0076 -19.6748 -97.1938 57.3867 -12.9647 46.0439 -38.4573 -5.16411 -75.0596 -18.9127 1.81494 -24.1327 -83.9992 -34.9984 85.7534 -6.29414 13.2451 -25.851 37.7716 -19.5593 -100.362 0.973807 -0.450855 -16.5818 6.21707 9.7141 -3.23774 -8.16236 9.79323 7.41992 
-273.675 92.2605 -266.949 -108.778 33.996 -75.1111 -169.53 -8.94295 96.9597 -60.6211 18.9201 4.52634 94.3696 18.1783 6.55113 1.42593 5.42594 -3.6819 178.668 17.6595 88.7544 -37.6697 -28.6779 -9.1171 57.2468 1.14598 0.159656 15.8247 -0.296843 2.06258 -2.07858 8.16736 -90.6509 10.5256 -4.43913 -0.898641 -1.13796 -4.47439 -0.702021 -23.7216 -3.96358 -2.19308 -3.70894 -3.96357 -2.1931 95.8633 -18.763 -97.7953 54.9027 -9.51062 49.8529 -37.3555 -3.39994 -76.4811 -18.9134 2.48176 -28.3884 -84.676 -31.1712 83.7888 -4.28648 14.1358 -26.6988 39.832 -19.6535 -98.6197 0.0485767 -0.31967 -15.1706 5.07019 10.9682 -4.92072 -10.1234 10.9911 10.3113 
-268.616 95.1912 -263.444 -102.9 35.6653 -77.3362 -171.262 -0.767365 95.9906 -58.1828 19.5342 3.99393 75.5822 8.61629 8.74498 17.4118 4.48234 -5.18639 179.855 17.9715 89.3117 -26.0397 -33.955 -9.2898 58.9091 -0.0489115 0.778535 16.4332 0.337651 0.743854 -2.01232 7.61354 -90.8519 11.6277 -4.40193 -1.24064 -0.0361539 -4.45225 -1.04535 -22.6144 -3.8254 -2.50774 -2.60178 -3.82541 -2.50775 95.1469 -19.3298 -99.3644 51.3772 -4.0819 49.4263 -34.2922 -3.31527 -77.6621 -17.6167 2.68845 -31.3658 -85.1319 -28.4928 82.3487 -2.19289 18.1589 -26.8325 42.4795 -20.4512 -96.548 0.442153 -0.32678 -13.9641 5.16437 10.6277 -10.3799 -12.6795 11.0936 14.1819 
-263.485 95.5444 -257.977 -102.2 41.3363 -79.0408 -172.632 3.54335 91.6395 -54.8444 11.1042 0.947834 67.7441 4.11582 4.30041 24.3609 2.34699 -3.25073 -177.629 21.573 87.0051 -32.907 -32.8943 -10.2942 65.1415 -3.17262 -1.08341 9.68375 0.767299 0.626879 -1.38906 7.55429 -90.6848 11.7528 -3.08417 -1.0395 0.0852116 -3.12694 -0.902638 -22.4696 -2.62914 -1.91882 -2.45691 -2.62913 -1.91882 94.4197 -21.9434 -100.226 46.8874 -2.26061 43.5336 -35.5727 -5.53853 -80.4417 -20.6309 3.28329 -31.4681 -85.5072 -31.074 82.1768 1.02128 24.0208 -23.2194 42.817 -22.1457 -95.8193 1.79993 -0.420441 -13.5031 8.61349 10.1119 -13.326 -13.8456 11.2179 15.4042 
-257.997 93.9905 -253.212 -102.19 43.9945 -78.7513 -172.748 8.55188 90.5464 -56.2949 9.2217 0.249342 70.7891 5.30312 3.49358 34.995 1.39141 -3.33529 -176.565 25.0693 86.3569 -46.4288 -19.1193 -8.22575 71.0714 -5.85464 -2.03261 11.9139 -0.298817 2.33532 -1.08058 7.66906 -90.6919 11.524 -2.47332 -1.1254 -0.145006 -2.52046 -1.0154 -22.6899 -2.02078 -1.81685 -2.67728 -2.02077 -1.81685 92.998 -26.2372 -101.947 39.3012 -3.58261 34.4526 -41.0703 -4.19614 -86.1401 -22.673 3.12886 -29.0553 -85.9847 -38.2102 82.777 3.69889 29.1878 -14.7345 39.7478 -23.359 -96.5791 2.03568 -0.397793 -12.2167 13.2848 9.58611 -14.388 -15.3838 11.3427 14.6953 
-252.56 92.0885 -248.414 -104.254 46.0826 -76.7335 -171.314 11.7749 91.5457 -57.9838 9.02937 -0.492045 72.5481 6.24295 4.9662 46.3596 1.56866 -6.1274 -175.966 26.0755 85.5515 -63.5952 -10.6739 -6.42927 76.0706 -8.05404 -1.93464 12.8336 -0.584426 2.8065 -0.663088 7.89045 -90.6334 11.0846 -1.61362 -1.10349 -0.585806 -1.6606 -1.03141 -23.1222 -1.20741 -1.53741 -3.10955 -1.20743 -1.53742 90.2506 -28.9281 -106.656 30.4087 -1.15635 25.1801 -38.9532 -2.82336 -91.9206 -23.9456 3.00577 -26.4642 -85.1151 -42.2688 84.955 0.0616454 32.0551 -6.63853 41.8017 -22.1451 -93.6018 4.40436 -0.428934 -10.2909 14.5549 8.74999 -14.5455 -14.1548 11.0348 12.9872 
-247.627 90.6068 -243.946 -105.763 47.5817 -74.675 -169.998 16.448 92.7436 -61.1999 9.70984 -0.828688 78.0561 8.59677 3.65633 35.1947 1.31334 -3.19269 -176.842 23.1456 84.7641 -76.5096 -6.01423 -4.54772 78.2378 -9.739 -3.52617 12.866 -1.69175 4.86461 -0.17342 7.84578 -90.58 11.178 -0.614681 -1.09437 -0.493194 -0.662249 -1.06627 -23.0249 -0.257404 -1.2285 -3.0123 -0.257402 -1.22849 92.3052 -31.0114 -101.847 23.0829 -4.65062 10.7552 -41.4506 0.368572 -94.8613 -24.0297 2.47251 -23.7152 -83.5141 -43.5035 87.7572 -9.85454 36.896 7.22123 43.9507 -22.6201 -91.229 1.60962 -0.28457 -9.94718 14.0013 7.2129 -14.2197 -12.7119 9.7362 10.9434 
